<mxfile host="app.diagrams.net" modified="2022-11-21T07:28:19.032Z" agent="5.0 (Windows NT 10.0; Win64; x64) AppleWebKit/537.36 (KHTML, like Gecko) Chrome/107.0.0.0 Safari/537.36" etag="nh939cE43uWaDRc1LfJ6" version="20.2.3" type="github">
  <diagram id="kgpKYQtTHZ0yAKxKKP6v" name="Page-1">
    <mxGraphModel dx="3211" dy="354" grid="1" gridSize="10" guides="1" tooltips="1" connect="1" arrows="1" fold="1" page="1" pageScale="1" pageWidth="850" pageHeight="1100" math="0" shadow="0">
      <root>
        <mxCell id="0" />
        <mxCell id="1" parent="0" />
        <mxCell id="3nuBFxr9cyL0pnOWT2aG-1" value="Device m" style="shape=umlLifeline;perimeter=lifelinePerimeter;container=1;collapsible=0;recursiveResize=0;rounded=0;shadow=0;strokeWidth=1;fontFamily=Times New Roman;fontStyle=1" parent="1" vertex="1">
          <mxGeometry x="160" y="80" width="100" height="300" as="geometry" />
        </mxCell>
        <mxCell id="3nuBFxr9cyL0pnOWT2aG-2" value="" style="points=[];perimeter=orthogonalPerimeter;rounded=0;shadow=0;strokeWidth=1;" parent="3nuBFxr9cyL0pnOWT2aG-1" vertex="1">
          <mxGeometry x="45" y="70" width="10" height="190" as="geometry" />
        </mxCell>
        <mxCell id="3nuBFxr9cyL0pnOWT2aG-5" value="Authentication &#xa;server i" style="shape=umlLifeline;perimeter=lifelinePerimeter;container=1;collapsible=0;recursiveResize=0;rounded=0;shadow=0;strokeWidth=1;fontStyle=1;fontFamily=Times New Roman;" parent="1" vertex="1">
          <mxGeometry x="320" y="80" width="100" height="300" as="geometry" />
        </mxCell>
        <mxCell id="3nuBFxr9cyL0pnOWT2aG-6" value="" style="points=[];perimeter=orthogonalPerimeter;rounded=0;shadow=0;strokeWidth=1;" parent="3nuBFxr9cyL0pnOWT2aG-5" vertex="1">
          <mxGeometry x="45" y="70" width="10" height="190" as="geometry" />
        </mxCell>
        <mxCell id="D1W9RPqVoIaySip7h15J-24" value="" style="verticalAlign=bottom;endArrow=block;shadow=0;strokeWidth=1;entryX=-0.01;entryY=0.501;entryDx=0;entryDy=0;entryPerimeter=0;" edge="1" parent="3nuBFxr9cyL0pnOWT2aG-5">
          <mxGeometry relative="1" as="geometry">
            <mxPoint x="-104.75" y="180.00000000000023" as="sourcePoint" />
            <mxPoint x="204.9000000000001" y="180.19000000000005" as="targetPoint" />
          </mxGeometry>
        </mxCell>
        <mxCell id="D1W9RPqVoIaySip7h15J-25" value="Access request" style="points=[];perimeter=orthogonalPerimeter;rounded=0;shadow=0;strokeWidth=1;rotation=90;horizontal=0;fontSize=8;fontFamily=Times New Roman;" vertex="1" parent="3nuBFxr9cyL0pnOWT2aG-5">
          <mxGeometry x="47.25" y="140" width="10" height="80" as="geometry" />
        </mxCell>
        <mxCell id="D1W9RPqVoIaySip7h15J-69" value="1. Extract RFF feature&#xa;2. Training classifier" style="points=[];perimeter=orthogonalPerimeter;rounded=0;shadow=0;strokeWidth=1;rotation=90;horizontal=0;fontSize=8;align=left;dashed=1;fontFamily=Times New Roman;" vertex="1" parent="3nuBFxr9cyL0pnOWT2aG-5">
          <mxGeometry x="42.56999999999999" y="43.75" width="19.37" height="96.25" as="geometry" />
        </mxCell>
        <mxCell id="3nuBFxr9cyL0pnOWT2aG-8" value="" style="verticalAlign=bottom;endArrow=block;entryX=0;entryY=0;shadow=0;strokeWidth=1;" parent="1" source="3nuBFxr9cyL0pnOWT2aG-2" target="3nuBFxr9cyL0pnOWT2aG-6" edge="1">
          <mxGeometry relative="1" as="geometry">
            <mxPoint x="275" y="160" as="sourcePoint" />
          </mxGeometry>
        </mxCell>
        <mxCell id="D1W9RPqVoIaySip7h15J-4" value="Authentication &#xa;server i" style="shape=umlLifeline;perimeter=lifelinePerimeter;container=1;collapsible=0;recursiveResize=0;rounded=0;shadow=0;strokeWidth=1;" vertex="1" parent="1">
          <mxGeometry x="480" y="80" width="100" height="300" as="geometry" />
        </mxCell>
        <mxCell id="D1W9RPqVoIaySip7h15J-5" value="" style="points=[];perimeter=orthogonalPerimeter;rounded=0;shadow=0;strokeWidth=1;" vertex="1" parent="D1W9RPqVoIaySip7h15J-4">
          <mxGeometry x="45" y="70" width="10" height="190" as="geometry" />
        </mxCell>
        <mxCell id="D1W9RPqVoIaySip7h15J-38" value="Authentication &#xa;server j" style="shape=umlLifeline;perimeter=lifelinePerimeter;container=1;collapsible=0;recursiveResize=0;rounded=0;shadow=0;strokeWidth=1;fontFamily=Times New Roman;fontStyle=1" vertex="1" parent="D1W9RPqVoIaySip7h15J-4">
          <mxGeometry x="-0.37999999999999545" width="100" height="300" as="geometry" />
        </mxCell>
        <mxCell id="D1W9RPqVoIaySip7h15J-39" value="" style="points=[];perimeter=orthogonalPerimeter;rounded=0;shadow=0;strokeWidth=1;" vertex="1" parent="D1W9RPqVoIaySip7h15J-38">
          <mxGeometry x="45" y="70" width="10" height="190" as="geometry" />
        </mxCell>
        <mxCell id="D1W9RPqVoIaySip7h15J-40" value="" style="verticalAlign=bottom;endArrow=block;entryX=-0.295;entryY=0.107;shadow=0;strokeWidth=1;entryDx=0;entryDy=0;entryPerimeter=0;exitX=1.086;exitY=0.102;exitDx=0;exitDy=0;exitPerimeter=0;" edge="1" parent="D1W9RPqVoIaySip7h15J-38">
          <mxGeometry relative="1" as="geometry">
            <mxPoint x="203.0999999999999" y="142.07999999999993" as="sourcePoint" />
            <mxPoint x="-103.08999999999986" y="141.13" as="targetPoint" />
          </mxGeometry>
        </mxCell>
        <mxCell id="D1W9RPqVoIaySip7h15J-41" value="Return transaction confirmation" style="points=[];perimeter=orthogonalPerimeter;rounded=0;shadow=0;strokeWidth=1;rotation=90;horizontal=0;fontSize=8;fontFamily=Times New Roman;" vertex="1" parent="D1W9RPqVoIaySip7h15J-38">
          <mxGeometry x="43.799999999999955" y="68" width="10" height="147.5" as="geometry" />
        </mxCell>
        <mxCell id="D1W9RPqVoIaySip7h15J-70" value="1. Extract RFF feature&#xa;2. Get classification result" style="points=[];perimeter=orthogonalPerimeter;rounded=0;shadow=0;strokeWidth=1;rotation=90;horizontal=0;fontSize=8;align=left;dashed=1;fontFamily=Times New Roman;" vertex="1" parent="D1W9RPqVoIaySip7h15J-38">
          <mxGeometry x="39.120000000000005" y="184" width="19.37" height="96.25" as="geometry" />
        </mxCell>
        <mxCell id="D1W9RPqVoIaySip7h15J-6" value="Blockchain" style="shape=umlLifeline;perimeter=lifelinePerimeter;container=1;collapsible=0;recursiveResize=0;rounded=0;shadow=0;strokeWidth=1;fontStyle=1;fontFamily=Times New Roman;" vertex="1" parent="1">
          <mxGeometry x="640" y="80" width="100" height="300" as="geometry" />
        </mxCell>
        <mxCell id="D1W9RPqVoIaySip7h15J-7" value="" style="points=[];perimeter=orthogonalPerimeter;rounded=0;shadow=0;strokeWidth=1;" vertex="1" parent="D1W9RPqVoIaySip7h15J-6">
          <mxGeometry x="45" y="70" width="10" height="190" as="geometry" />
        </mxCell>
        <mxCell id="D1W9RPqVoIaySip7h15J-28" value="" style="verticalAlign=bottom;endArrow=block;entryX=0;entryY=0;shadow=0;strokeWidth=1;" edge="1" parent="D1W9RPqVoIaySip7h15J-6">
          <mxGeometry relative="1" as="geometry">
            <mxPoint x="-105" y="191.00000000000023" as="sourcePoint" />
            <mxPoint x="45" y="191.00000000000023" as="targetPoint" />
          </mxGeometry>
        </mxCell>
        <mxCell id="D1W9RPqVoIaySip7h15J-29" value="Query request" style="points=[];perimeter=orthogonalPerimeter;rounded=0;shadow=0;strokeWidth=1;rotation=90;horizontal=0;fontSize=8;fontFamily=Times New Roman;" vertex="1" parent="D1W9RPqVoIaySip7h15J-6">
          <mxGeometry x="-35" y="151" width="10" height="80" as="geometry" />
        </mxCell>
        <mxCell id="D1W9RPqVoIaySip7h15J-30" value="" style="verticalAlign=bottom;endArrow=block;entryX=0;entryY=0;shadow=0;strokeWidth=1;exitX=0.038;exitY=0.32;exitDx=0;exitDy=0;exitPerimeter=0;" edge="1" parent="D1W9RPqVoIaySip7h15J-6">
          <mxGeometry relative="1" as="geometry">
            <mxPoint x="45.68999999999983" y="210.04999999999995" as="sourcePoint" />
            <mxPoint x="-105.69000000000005" y="209.25000000000023" as="targetPoint" />
          </mxGeometry>
        </mxCell>
        <mxCell id="D1W9RPqVoIaySip7h15J-31" value="Return RFF and classifier" style="points=[];perimeter=orthogonalPerimeter;rounded=0;shadow=0;strokeWidth=1;rotation=90;horizontal=0;fontSize=8;fontFamily=Times New Roman;" vertex="1" parent="D1W9RPqVoIaySip7h15J-6">
          <mxGeometry x="-34.440000000000055" y="153" width="10" height="112.5" as="geometry" />
        </mxCell>
        <mxCell id="3nuBFxr9cyL0pnOWT2aG-4" value="Registration request" style="points=[];perimeter=orthogonalPerimeter;rounded=0;shadow=0;strokeWidth=1;rotation=90;horizontal=0;fontSize=8;fontFamily=Times New Roman;" parent="1" vertex="1">
          <mxGeometry x="285" y="110" width="10" height="80" as="geometry" />
        </mxCell>
        <mxCell id="D1W9RPqVoIaySip7h15J-12" value="" style="verticalAlign=bottom;endArrow=block;entryX=-0.01;entryY=0.112;shadow=0;strokeWidth=1;entryDx=0;entryDy=0;entryPerimeter=0;exitX=1.086;exitY=0.102;exitDx=0;exitDy=0;exitPerimeter=0;" edge="1" parent="1">
          <mxGeometry relative="1" as="geometry">
            <mxPoint x="375.8600000000001" y="199.38" as="sourcePoint" />
            <mxPoint x="684.9000000000001" y="201.27999999999997" as="targetPoint" />
          </mxGeometry>
        </mxCell>
        <mxCell id="D1W9RPqVoIaySip7h15J-13" value="RFF and classifier sharing transaction" style="points=[];perimeter=orthogonalPerimeter;rounded=0;shadow=0;strokeWidth=1;rotation=90;horizontal=0;fontSize=8;fontFamily=Times New Roman;" vertex="1" parent="1">
          <mxGeometry x="522.75" y="126.25" width="10" height="147.5" as="geometry" />
        </mxCell>
        <mxCell id="D1W9RPqVoIaySip7h15J-20" value="" style="verticalAlign=bottom;endArrow=block;entryX=0;entryY=0;shadow=0;strokeWidth=1;exitX=0.038;exitY=0.32;exitDx=0;exitDy=0;exitPerimeter=0;" edge="1" parent="1">
          <mxGeometry relative="1" as="geometry">
            <mxPoint x="365.3799999999999" y="238.79999999999995" as="sourcePoint" />
            <mxPoint x="214" y="238.00000000000023" as="targetPoint" />
          </mxGeometry>
        </mxCell>
        <mxCell id="D1W9RPqVoIaySip7h15J-21" value="Return registration result" style="points=[];perimeter=orthogonalPerimeter;rounded=0;shadow=0;strokeWidth=1;rotation=90;horizontal=0;fontSize=8;fontFamily=Times New Roman;" vertex="1" parent="1">
          <mxGeometry x="285.25" y="181.75" width="10" height="112.5" as="geometry" />
        </mxCell>
        <mxCell id="D1W9RPqVoIaySip7h15J-32" value="" style="verticalAlign=bottom;endArrow=block;entryX=0;entryY=0;shadow=0;strokeWidth=1;exitX=-0.105;exitY=0.789;exitDx=0;exitDy=0;exitPerimeter=0;" edge="1" parent="1">
          <mxGeometry relative="1" as="geometry">
            <mxPoint x="523.95" y="329.90999999999997" as="sourcePoint" />
            <mxPoint x="214.31" y="331.0000000000002" as="targetPoint" />
          </mxGeometry>
        </mxCell>
        <mxCell id="D1W9RPqVoIaySip7h15J-33" value="Return access result" style="points=[];perimeter=orthogonalPerimeter;rounded=0;shadow=0;strokeWidth=1;rotation=90;horizontal=0;fontSize=8;fontFamily=Times New Roman;" vertex="1" parent="1">
          <mxGeometry x="285.56" y="273.75" width="10" height="112.5" as="geometry" />
        </mxCell>
        <mxCell id="D1W9RPqVoIaySip7h15J-68" value="" style="points=[];perimeter=orthogonalPerimeter;rounded=0;shadow=0;strokeWidth=1;rotation=90;horizontal=0;fontSize=8;" vertex="1" parent="1">
          <mxGeometry x="-2030" y="126.25" width="25" height="80" as="geometry" />
        </mxCell>
      </root>
    </mxGraphModel>
  </diagram>
</mxfile>
